<svg version="1.1" xmlns="http://www.w3.org/2000/svg" xmlns:xlink="http://www.w3.org/1999/xlink" x="0px" y="0px" width="512px"
	 height="512.0005px" viewBox="0 0 512 512.0005" style="enable-background:new 0 0 512 512.0005;" xml:space="preserve">
<defs>
</defs>
<g>
	<g>
		<rect x="3.717" y="3.7166" style="fill:#33322D;" width="248.5664" height="504.5674"/>
		<path style="fill:#33322D;" d="M248.5667,7.4333v247.0117v42.8472v207.2749H7.4333V7.4333H248.5667 M256,0H0v512.0005h256
			V297.2922v-42.8472V0L256,0z"/>
	</g>
	<g>
		<rect x="259.717" y="3.7166" style="fill:#FFFFFF;" width="248.5664" height="504.5674"/>
		<path style="fill:#33322D;" d="M504.5666,7.4333v497.1338H263.4333V7.4333H504.5666 M512,0H256v512.0005h256V0L512,0z"/>
	</g>
	<g>
		<path style="fill:#33322D;" d="M437.7478,266.9248h-87.2502v66.565h102.1095v28.5517H315.3929V149.9589h136.1938v28.8391H350.4976
			v59.8683h87.2502V266.9248z"/>
	</g>
	<path style="fill:#FFFFFF;" d="M212.241,301.4786c-1.0794,11.3273-3.7779,21.6614-8.0923,30.9928
		c-4.3176,9.3346-10.0339,17.3183-17.1554,23.9543c-7.1215,6.6361-15.514,11.7616-25.1679,15.3734
		c-9.6571,3.615-20.4223,5.4225-32.2893,5.4225c-14.3515,0-26.8668-2.7784-37.549-8.335
		c-10.679-5.5567-19.5825-13.0805-26.7023-22.578c-7.1215-9.4942-12.4626-20.6075-16.0233-33.34
		c-3.5607-12.7292-5.397-26.3239-5.5024-40.784v-32.2095c0.1054-14.3483,1.9943-27.9174,5.6636-40.7042
		c3.6677-12.7835,9.0887-23.9511,16.266-33.4997c7.1758-9.5485,16.1047-17.1011,26.787-22.6578
		c10.679-5.5567,23.0857-8.335,37.2233-8.335c12.4067,0,23.4657,1.8331,33.1771,5.5024s18.0176,8.846,24.9252,15.5363
		c6.9043,6.6904,12.4067,14.8369,16.5071,24.4397s6.7415,20.285,7.9326,32.0434h-38.8456
		c-0.6451-6.9043-1.9672-13.1891-3.9631-18.8543c-1.9991-5.6652-4.7232-10.5193-8.1753-14.5655
		c-3.4522-4.0462-7.7953-7.147-13.0262-9.3058c-5.2341-2.1588-11.4103-3.2382-18.5318-3.2382
		c-8.7406,0-16.0792,1.9991-22.0127,5.9878c-5.9335,3.995-10.7365,9.3633-14.4026,16.1048
		c-3.6693,6.7446-6.288,14.5399-7.8496,23.3859c-1.5648,8.8492-2.3472,18.1262-2.3472,27.8376v32.532
		c0,10.1425,0.7824,19.6623,2.3472,28.5657c1.5616,8.9002,4.126,16.6987,7.6867,23.3859
		c3.5607,6.6904,8.3094,11.9756,14.2429,15.8621c5.9335,3.8833,13.3232,5.8249,22.1724,5.8249
		c13.5947,0,23.9543-3.8546,31.0758-11.57c7.1215-7.7155,11.3273-18.6404,12.6239-32.7747H212.241z"/>
</g>
</svg>